<svg width="1856" height="470" viewBox="0 0 1856 470" fill="none" xmlns="http://www.w3.org/2000/svg">
<path d="M709.082 56.5391C446.316 -60.7979 126.875 111.33 0 212.061V470H1849.99C1849.99 374.92 1863.51 139.741 1849.99 95.4866C1579.49 -167.51 1435.8 193.507 1217.22 218.383C1039.47 238.614 1037.54 203.21 709.082 56.5391Z" fill="#65318E"/>
<path d="M1554.37 292.966C1545.29 292.966 1537.93 285.6 1537.93 276.51C1537.93 267.44 1545.29 260.074 1554.37 260.074C1563.45 260.074 1570.82 267.44 1570.82 276.51C1570.82 285.6 1563.45 292.966 1554.37 292.966ZM1554.37 255.887C1505.7 255.887 1554.37 314.504 1554.37 314.504C1554.37 314.504 1603.04 255.887 1554.37 255.887Z" fill="#FF0000"/>
<path d="M1554.98 289.595C1548.4 289.595 1543.06 284.261 1543.06 277.674C1543.06 271.098 1548.4 265.763 1554.98 265.763C1561.55 265.763 1566.9 271.098 1566.9 277.674C1566.9 284.261 1561.55 289.595 1554.98 289.595ZM1554.98 263.48C1547.13 263.48 1540.77 269.835 1540.77 277.674C1540.77 285.523 1547.13 291.878 1554.98 291.878C1562.82 291.878 1569.17 285.523 1569.17 277.674C1569.17 269.835 1562.82 263.48 1554.98 263.48Z" fill="#FF0000"/>
<path d="M279.31 416.257C284.55 416.257 289.4 413.469 292.031 408.924L318.819 362.638C320.682 359.429 324.091 357.44 327.805 357.398L348.207 357.209C353.289 357.167 358.297 355.967 362.853 353.716L365.81 352.253C368.177 351.085 368.177 347.718 365.81 346.55L362.853 345.088C358.297 342.836 353.289 341.647 348.207 341.594L327.805 341.405C324.091 341.373 320.682 339.385 318.819 336.165L292.031 289.88C289.4 285.345 284.55 282.546 279.31 282.546C290.232 302.695 296.461 327.842 298.744 338.343C299.049 339.785 297.944 341.131 296.482 341.11L295.377 336.817C294.83 334.724 292.767 333.398 290.642 333.787L284.929 334.818C284.15 334.966 283.445 335.355 282.919 335.934C282.372 336.544 281.635 336.944 280.825 337.07L278.763 337.386L281.067 337.796C281.783 337.922 282.445 338.259 282.961 338.775L283.824 339.637L285.244 341.016L280.92 340.974C278.142 340.942 275.364 341.268 272.671 341.942L259.108 345.33L253.679 330.694C252.511 327.558 249.344 325.633 246.019 326.054L241 326.685L248.912 347.865L245.135 348.812C244.514 348.96 244.514 349.843 245.135 350.001L248.912 350.938L241 372.118L246.061 372.76C249.365 373.17 252.521 371.276 253.7 368.173L259.255 353.516L272.671 356.862C275.364 357.535 278.142 357.861 280.92 357.84L285.244 357.798L283.824 359.166L282.961 360.029C282.445 360.544 281.783 360.891 281.067 361.018L278.763 361.418L280.825 361.733C281.635 361.859 282.372 362.259 282.919 362.87C283.445 363.448 284.15 363.848 284.929 363.985L290.642 365.016C292.767 365.405 294.83 364.08 295.377 361.986L296.482 357.693C297.944 357.682 299.049 359.029 298.744 360.46C296.461 370.961 290.232 396.119 279.31 416.257Z" fill="white"/>
<path d="M1554.01 322.275C1554.01 325.326 1551.54 327.799 1548.49 327.799C1545.44 327.799 1542.97 325.326 1542.97 322.275C1542.97 319.224 1545.44 316.761 1548.49 316.761C1551.54 316.761 1554.01 319.224 1554.01 322.275Z" fill="white" stroke="#6D0018" stroke-width="0.133333"/>
<path d="M404.431 351.928C404.357 351.928 404.284 351.928 404.21 351.917C400.706 351.675 397.192 351.412 393.678 351.128C391.942 350.981 390.647 349.466 390.795 347.719C390.932 345.983 392.436 344.689 394.193 344.836C397.676 345.12 401.159 345.383 404.641 345.615C406.388 345.741 407.693 347.246 407.577 348.982C407.461 350.655 406.072 351.928 404.431 351.928Z" fill="white" stroke="#6D0018" stroke-width="0.133333"/>
<path d="M636.821 193.289C635.6 193.289 634.432 192.563 633.917 191.364C633.233 189.764 633.98 187.902 635.59 187.228C642.597 184.23 649.742 182.483 656.823 182.01C658.538 181.873 660.063 183.209 660.179 184.945C660.295 186.692 658.98 188.197 657.233 188.312C650.867 188.733 644.418 190.322 638.062 193.037C637.652 193.205 637.242 193.289 636.821 193.289ZM695.091 202.275C694.291 202.275 693.491 201.98 692.881 201.37C690.44 198.981 687.725 196.835 684.8 195.004C682.18 193.363 679.382 191.995 676.499 190.943C674.868 190.343 674.026 188.533 674.626 186.892C675.225 185.25 677.035 184.419 678.677 185.008C681.97 186.218 685.158 187.776 688.146 189.659C691.461 191.732 694.543 194.152 697.3 196.877C698.552 198.098 698.563 200.097 697.342 201.338C696.721 201.97 695.911 202.275 695.091 202.275ZM604.855 219.425C604.245 219.425 603.614 219.246 603.067 218.868C601.636 217.868 601.278 215.9 602.267 214.47C606.36 208.546 611.326 203.18 617.019 198.518C618.365 197.414 620.354 197.614 621.459 198.96C622.564 200.307 622.364 202.296 621.017 203.401C615.777 207.693 611.221 212.628 607.454 218.057C606.844 218.952 605.865 219.425 604.855 219.425ZM711.694 239.722C710.084 239.722 708.706 238.491 708.558 236.86C707.906 229.937 706.307 223.445 703.803 217.584C703.119 215.985 703.866 214.122 705.465 213.438C707.065 212.754 708.927 213.502 709.611 215.101C712.378 221.572 714.135 228.695 714.84 236.271C715.009 238.007 713.725 239.543 711.999 239.711C711.894 239.722 711.799 239.722 711.694 239.722ZM1086.93 247.34C1085.3 247.34 1083.91 246.088 1083.79 244.436C1083.64 242.7 1084.94 241.174 1086.68 241.037C1091.84 240.616 1096.98 240.406 1101.97 240.406C1101.98 240.406 1101.99 240.406 1102.01 240.406C1103.98 240.406 1105.98 240.437 1107.94 240.501C1109.67 240.564 1111.04 242.026 1110.98 243.762C1110.92 245.509 1109.47 246.866 1107.71 246.814C1105.82 246.75 1103.9 246.729 1101.97 246.719C1097.15 246.719 1092.17 246.919 1087.19 247.329C1087.1 247.329 1087.02 247.34 1086.93 247.34ZM1148.92 253.811C1148.59 253.811 1148.27 253.758 1147.94 253.653C1141.47 251.548 1134.8 249.918 1128.1 248.792C1126.38 248.508 1125.22 246.877 1125.51 245.162C1125.79 243.447 1127.43 242.279 1129.14 242.573C1136.14 243.741 1143.13 245.446 1149.89 247.645C1151.55 248.192 1152.45 249.97 1151.92 251.633C1151.49 252.958 1150.24 253.811 1148.92 253.811ZM1045.8 254.642C1044.4 254.642 1043.13 253.705 1042.75 252.296C1042.31 250.612 1043.31 248.876 1044.99 248.434C1051.99 246.572 1058.95 245.014 1065.65 243.804C1067.36 243.489 1069.01 244.636 1069.31 246.351C1069.63 248.066 1068.48 249.707 1066.76 250.012C1060.23 251.191 1053.45 252.716 1046.61 254.537C1046.35 254.6 1046.08 254.642 1045.8 254.642ZM593.292 258.84C591.587 258.84 590.188 257.483 590.146 255.768C590.125 255.063 590.114 254.347 590.114 253.632C590.114 250.433 590.314 247.192 590.703 244.025C591.114 240.711 591.808 237.386 592.776 234.114C593.271 232.441 595.028 231.494 596.69 231.988C598.363 232.483 599.321 234.229 598.826 235.902C597.964 238.838 597.332 241.826 596.964 244.793C596.606 247.708 596.427 250.686 596.427 253.632C596.427 254.295 596.438 254.947 596.448 255.599C596.501 257.346 595.123 258.798 593.387 258.84C593.355 258.84 593.323 258.84 593.292 258.84ZM1006.21 268.015C1004.96 268.015 1003.77 267.268 1003.28 266.037C1002.62 264.417 1003.41 262.575 1005.02 261.923L1006.85 261.197C1012.92 258.777 1018.95 256.557 1024.78 254.568C1026.43 254.011 1028.23 254.894 1028.79 256.546C1029.35 258.198 1028.46 259.987 1026.82 260.545C1021.09 262.502 1015.15 264.69 1009.19 267.058L1007.38 267.784C1007 267.941 1006.6 268.015 1006.21 268.015ZM1186.07 272.645C1185.42 272.645 1184.77 272.445 1184.21 272.034C1178.82 268.089 1172.97 264.522 1166.82 261.418C1165.26 260.629 1164.64 258.735 1165.42 257.178C1166.21 255.62 1168.1 255 1169.66 255.778C1176.12 259.04 1182.26 262.796 1187.93 266.942C1189.34 267.962 1189.65 269.941 1188.62 271.351C1188 272.192 1187.04 272.645 1186.07 272.645ZM705.213 280.631C704.802 280.631 704.392 280.557 703.992 280.389C702.382 279.715 701.625 277.864 702.298 276.254C704.886 270.056 706.749 263.554 707.822 256.904C708.096 255.189 709.726 254.021 711.442 254.295C713.157 254.568 714.335 256.189 714.051 257.914C712.904 265.048 710.905 272.034 708.117 278.695C707.612 279.905 706.444 280.631 705.213 280.631ZM1282.89 280.999C1281.19 280.999 1279.79 279.642 1279.74 277.927C1279.69 276.18 1281.06 274.728 1282.81 274.686C1289.78 274.497 1296.83 274.423 1303.82 274.454C1305.57 274.465 1306.97 275.885 1306.97 277.632C1306.96 279.368 1305.54 280.768 1303.81 280.768C1303.8 280.768 1303.79 280.768 1303.79 280.768C1296.88 280.736 1289.89 280.81 1282.98 280.999C1282.96 280.999 1282.92 280.999 1282.89 280.999ZM1345.59 282.346C1345.52 282.346 1345.45 282.346 1345.37 282.335C1338.47 281.851 1331.48 281.473 1324.59 281.22C1322.84 281.146 1321.49 279.684 1321.56 277.937C1321.62 276.201 1323.05 274.875 1324.83 274.907C1331.79 275.17 1338.85 275.549 1345.81 276.043C1347.55 276.159 1348.86 277.674 1348.74 279.41C1348.62 281.073 1347.23 282.346 1345.59 282.346ZM1241.15 283.503C1239.54 283.503 1238.16 282.272 1238.02 280.641C1237.85 278.905 1239.13 277.358 1240.86 277.201C1247.79 276.559 1254.84 276.022 1261.82 275.601C1263.56 275.486 1265.05 276.822 1265.15 278.558C1265.26 280.305 1263.93 281.799 1262.2 281.904C1255.28 282.314 1248.31 282.851 1241.45 283.493C1241.35 283.493 1241.25 283.503 1241.15 283.503ZM968.006 285.008C966.817 285.008 965.691 284.345 965.155 283.209C964.397 281.641 965.07 279.757 966.638 279C973.677 275.654 979.906 272.76 985.683 270.172C987.271 269.467 989.134 270.172 989.849 271.771C990.565 273.36 989.849 275.223 988.26 275.938C982.537 278.505 976.35 281.367 969.353 284.703C968.921 284.913 968.458 285.008 968.006 285.008ZM1387.2 286.618C1387.05 286.618 1386.9 286.607 1386.76 286.586C1379.94 285.66 1372.98 284.84 1366.1 284.124C1364.36 283.945 1363.1 282.398 1363.28 280.662C1363.46 278.926 1365.01 277.664 1366.74 277.843C1373.7 278.558 1380.71 279.4 1387.61 280.336C1389.34 280.568 1390.55 282.156 1390.31 283.882C1390.1 285.471 1388.74 286.618 1387.2 286.618ZM1428.42 293.562C1428.22 293.562 1428.01 293.541 1427.8 293.499C1421.03 292.142 1414.15 290.858 1407.33 289.711C1405.62 289.427 1404.46 287.796 1404.75 286.081C1405.04 284.355 1406.67 283.198 1408.39 283.493C1415.27 284.65 1422.21 285.934 1429.04 287.312C1430.76 287.659 1431.86 289.322 1431.51 291.037C1431.21 292.531 1429.89 293.562 1428.42 293.562ZM604.803 298.613C603.698 298.613 602.625 298.034 602.046 297.013C598.416 290.584 595.575 283.903 593.587 277.159C593.092 275.486 594.05 273.739 595.712 273.244C597.385 272.739 599.142 273.707 599.637 275.37C601.488 281.662 604.15 287.891 607.549 293.909C608.401 295.425 607.865 297.35 606.349 298.213C605.855 298.486 605.329 298.613 604.803 298.613ZM1159.11 298.718C1157.82 298.718 1156.62 297.918 1156.15 296.645C1155.55 295.004 1156.39 293.194 1158.03 292.594C1164.3 290.3 1170.97 288.333 1178.42 286.565C1180.12 286.155 1181.82 287.207 1182.23 288.901C1182.63 290.595 1181.58 292.3 1179.88 292.699C1172.68 294.414 1166.24 296.319 1160.2 298.528C1159.84 298.655 1159.47 298.718 1159.11 298.718ZM1214.47 302.979C1213.41 302.979 1212.38 302.443 1211.78 301.475C1208.98 296.929 1205.75 292.541 1202.14 288.406C1201.49 288.512 1200.83 288.617 1200.18 288.722C1198.48 288.996 1196.83 287.838 1196.56 286.113C1196.31 284.566 1197.22 283.093 1198.67 282.609C1198.79 282.009 1199.1 281.441 1199.58 280.978C1200.85 279.778 1202.85 279.842 1204.04 281.115C1204.21 281.283 1204.38 281.462 1204.54 281.641C1204.84 281.599 1205.15 281.546 1205.44 281.504C1210.25 280.778 1215.14 280.105 1219.97 279.494C1221.69 279.284 1223.28 280.505 1223.5 282.23C1223.72 283.956 1222.5 285.534 1220.76 285.755C1217 286.228 1213.21 286.744 1209.45 287.291C1212.27 290.784 1214.86 294.425 1217.15 298.171C1218.07 299.654 1217.6 301.601 1216.12 302.516C1215.61 302.832 1215.04 302.979 1214.47 302.979ZM1469.12 303.169C1468.85 303.169 1468.57 303.137 1468.3 303.063C1461.64 301.254 1454.85 299.539 1448.13 297.95C1446.43 297.55 1445.38 295.856 1445.78 294.151C1446.18 292.457 1447.88 291.405 1449.58 291.805C1456.37 293.415 1463.23 295.151 1469.95 296.961C1471.63 297.424 1472.62 299.149 1472.17 300.833C1471.79 302.243 1470.52 303.169 1469.12 303.169ZM930.359 303.232C929.18 303.232 928.054 302.569 927.507 301.443C926.75 299.865 927.413 297.981 928.991 297.224C934.757 294.456 940.523 291.658 946.278 288.848L947.794 288.112C949.351 287.354 951.245 288.007 952.013 289.574C952.77 291.142 952.118 293.026 950.55 293.794L949.035 294.53C943.269 297.339 937.503 300.149 931.716 302.916C931.274 303.137 930.811 303.232 930.359 303.232ZM680.192 313.585C679.287 313.585 678.382 313.185 677.751 312.428C676.646 311.081 676.846 309.092 678.182 307.988C681.496 305.262 684.642 302.337 687.536 299.286C689.198 297.518 690.808 295.624 692.323 293.646C693.376 292.257 695.354 291.994 696.743 293.047C698.131 294.109 698.394 296.087 697.342 297.476C695.701 299.623 693.944 301.695 692.123 303.621C689.051 306.872 685.705 309.976 682.191 312.87C681.612 313.343 680.897 313.585 680.192 313.585ZM1509.1 315.405C1508.76 315.405 1508.42 315.342 1508.08 315.227C1501.55 312.996 1494.89 310.839 1488.29 308.819C1486.63 308.314 1485.68 306.546 1486.2 304.873C1486.7 303.211 1488.47 302.274 1490.14 302.779C1496.8 304.82 1503.53 306.999 1510.13 309.261C1511.77 309.818 1512.66 311.618 1512.09 313.27C1511.65 314.574 1510.42 315.405 1509.1 315.405ZM1123.22 319.646C1122.37 319.646 1121.52 319.309 1120.9 318.625C1119.72 317.352 1119.8 315.353 1121.08 314.174C1124.23 311.26 1127.6 308.577 1131.1 306.188C1133.48 304.557 1135.99 302.99 1138.56 301.527C1140.08 300.664 1142.01 301.19 1142.87 302.706C1143.73 304.221 1143.2 306.146 1141.69 307.009C1139.27 308.387 1136.9 309.871 1134.66 311.397C1131.42 313.617 1128.3 316.11 1125.36 318.815C1124.75 319.372 1123.98 319.646 1123.22 319.646ZM892.228 320.414C890.986 320.414 889.808 319.677 889.313 318.457C888.65 316.847 889.418 314.995 891.028 314.332C893.406 313.354 895.774 312.365 898.141 311.344C901.992 309.692 905.917 307.967 910.115 306.062C911.704 305.347 913.566 306.041 914.292 307.63C915.007 309.219 914.302 311.091 912.714 311.807C908.484 313.732 904.528 315.479 900.624 317.152C898.236 318.173 895.837 319.183 893.427 320.172C893.038 320.33 892.628 320.414 892.228 320.414ZM631.833 330.199C631.139 330.199 630.434 329.968 629.855 329.505C624.247 324.98 619.06 319.961 614.43 314.585C613.294 313.259 613.441 311.27 614.767 310.123C616.082 308.987 618.081 309.134 619.218 310.46C623.595 315.553 628.508 320.309 633.811 324.591C635.169 325.685 635.39 327.663 634.296 329.021C633.664 329.799 632.749 330.199 631.833 330.199ZM643.997 334.166C642.734 334.166 641.545 333.408 641.05 332.156C640.43 330.525 641.229 328.695 642.86 328.074C649.478 325.506 655.707 322.592 661.379 319.414C662.904 318.551 664.83 319.099 665.682 320.624C666.534 322.139 665.987 324.065 664.472 324.917C658.538 328.242 652.035 331.283 645.143 333.955C644.765 334.103 644.375 334.166 643.997 334.166ZM852.992 334.86C851.656 334.86 850.424 334.008 849.993 332.672C849.446 331.02 850.351 329.231 852.013 328.694C858.6 326.548 865.208 324.265 871.658 321.887C873.288 321.287 875.109 322.118 875.708 323.76C876.308 325.391 875.477 327.211 873.836 327.811C867.312 330.21 860.631 332.535 853.97 334.702C853.644 334.808 853.318 334.86 852.992 334.86ZM1227.37 342.331C1225.74 342.331 1224.35 341.079 1224.22 339.427C1223.69 332.619 1222.37 325.98 1220.32 319.688C1219.77 318.036 1220.68 316.247 1222.34 315.711C1223.99 315.163 1225.78 316.079 1226.32 317.731C1228.53 324.496 1229.94 331.63 1230.52 338.932C1230.65 340.668 1229.36 342.183 1227.62 342.32C1227.53 342.331 1227.44 342.331 1227.37 342.331ZM603.709 345.214C602.214 345.214 600.889 344.151 600.605 342.636C600.289 340.921 601.415 339.269 603.13 338.953C610.379 337.596 616.966 336.102 623.29 334.408C624.973 333.955 626.709 334.955 627.162 336.638C627.614 338.322 626.615 340.048 624.931 340.5C618.45 342.247 611.695 343.772 604.287 345.151C604.098 345.193 603.898 345.214 603.709 345.214ZM812.767 346.287C811.346 346.287 810.052 345.319 809.705 343.867C809.284 342.173 810.326 340.468 812.02 340.058C818.722 338.427 825.488 336.649 832.127 334.755C833.81 334.282 835.547 335.26 836.02 336.933C836.504 338.606 835.526 340.353 833.853 340.826C827.129 342.741 820.29 344.54 813.514 346.192C813.261 346.255 813.009 346.287 812.767 346.287ZM668.365 350.117C668.029 350.117 667.681 350.064 667.345 349.949C663.957 348.791 660.6 347.508 657.349 346.119C654.108 344.73 650.857 343.151 647.69 341.426C646.154 340.595 645.596 338.68 646.427 337.144C647.258 335.618 649.173 335.05 650.71 335.881C653.698 337.512 656.77 339.006 659.832 340.311C662.936 341.636 666.145 342.867 669.386 343.972C671.027 344.53 671.911 346.329 671.353 347.981C670.901 349.286 669.68 350.117 668.365 350.117ZM562.284 350.927C560.685 350.927 559.317 349.717 559.149 348.097C558.97 346.361 560.232 344.803 561.958 344.625C566.703 344.13 571.501 343.583 576.225 343.015C578.361 342.752 580.497 342.478 582.633 342.194C584.359 341.973 585.958 343.183 586.179 344.909C586.411 346.634 585.201 348.223 583.475 348.455C581.308 348.739 579.14 349.023 576.994 349.275C572.227 349.854 567.398 350.401 562.621 350.906C562.505 350.917 562.4 350.927 562.284 350.927ZM520.597 354.242C518.934 354.242 517.545 352.937 517.451 351.253C517.356 349.517 518.692 348.023 520.428 347.928C527.362 347.55 534.359 347.076 541.219 346.54C542.976 346.392 544.471 347.697 544.618 349.433C544.755 351.169 543.45 352.684 541.714 352.832C534.801 353.379 527.762 353.852 520.775 354.231C520.712 354.242 520.66 354.242 520.597 354.242ZM1100.97 354.463C1100.69 354.463 1100.39 354.431 1100.1 354.347C1098.42 353.852 1097.46 352.106 1097.94 350.433C1099.9 343.657 1102.98 337.017 1107.09 330.694C1108.04 329.231 1110 328.81 1111.46 329.757C1112.92 330.715 1113.33 332.672 1112.39 334.134C1108.61 339.932 1105.79 346.013 1104 352.19C1103.6 353.568 1102.34 354.463 1100.97 354.463ZM771.784 354.599C770.259 354.599 768.922 353.484 768.67 351.937C768.396 350.212 769.575 348.591 771.29 348.318C774.846 347.76 778.518 347.118 782.222 346.434C785.358 345.856 788.556 345.235 791.734 344.593C793.449 344.246 795.111 345.351 795.458 347.055C795.806 348.76 794.701 350.433 792.986 350.78C789.777 351.432 786.546 352.053 783.369 352.642C779.612 353.337 775.888 353.978 772.289 354.557C772.121 354.578 771.953 354.599 771.784 354.599ZM457.897 355.346C457.876 355.346 457.855 355.346 457.834 355.346C450.858 355.21 443.798 354.989 436.853 354.683C435.107 354.61 433.76 353.137 433.834 351.39C433.918 349.654 435.37 348.297 437.127 348.381C444.019 348.686 451.026 348.907 457.95 349.033C459.696 349.075 461.085 350.506 461.043 352.253C461.011 353.978 459.612 355.346 457.897 355.346ZM478.804 355.494C477.068 355.494 475.658 354.094 475.647 352.358C475.637 350.612 477.047 349.191 478.783 349.181C485.706 349.138 492.724 349.023 499.616 348.812C501.321 348.77 502.815 350.127 502.867 351.874C502.92 353.61 501.552 355.073 499.805 355.125C492.861 355.336 485.801 355.452 478.814 355.494H478.804ZM709.295 358.124C709.221 358.124 709.148 358.124 709.064 358.124C701.793 357.587 694.701 356.672 687.978 355.378C686.263 355.052 685.137 353.4 685.474 351.685C685.8 349.97 687.462 348.854 689.167 349.181C695.648 350.422 702.498 351.316 709.527 351.822C711.263 351.948 712.567 353.463 712.441 355.199C712.325 356.861 710.936 358.124 709.295 358.124ZM730.192 358.608C728.476 358.608 727.077 357.24 727.035 355.525C726.993 353.779 728.371 352.337 730.118 352.295C736.694 352.137 743.628 351.706 750.751 351.001C752.477 350.832 754.023 352.095 754.202 353.831C754.371 355.567 753.108 357.114 751.372 357.282C744.101 358.008 736.999 358.45 730.265 358.608C730.244 358.608 730.213 358.608 730.192 358.608ZM1221.22 383.334C1220.83 383.334 1220.44 383.261 1220.05 383.113C1218.44 382.461 1217.65 380.62 1218.3 378.999C1220.77 372.865 1222.54 366.331 1223.54 359.576C1223.79 357.85 1225.4 356.651 1227.12 356.914C1228.84 357.167 1230.03 358.776 1229.78 360.502C1228.71 367.741 1226.81 374.77 1224.16 381.356C1223.67 382.587 1222.48 383.334 1221.22 383.334ZM1104.72 395.014C1103.61 395.014 1102.53 394.424 1101.95 393.383C1098.78 387.648 1096.75 381.493 1095.92 375.085C1095.79 374.138 1095.69 373.181 1095.61 372.234C1095.48 370.498 1096.77 368.972 1098.51 368.835C1100.22 368.688 1101.77 369.993 1101.91 371.729C1101.98 372.581 1102.06 373.423 1102.18 374.265C1102.92 379.883 1104.69 385.291 1107.48 390.321C1108.33 391.847 1107.77 393.772 1106.24 394.614C1105.76 394.877 1105.23 395.014 1104.72 395.014ZM1195.99 415.952C1195 415.952 1194.03 415.489 1193.4 414.605C1192.4 413.174 1192.75 411.207 1194.18 410.207C1199.54 406.472 1204.35 401.832 1208.47 396.424C1209.52 395.035 1211.5 394.772 1212.89 395.824C1214.28 396.886 1214.54 398.865 1213.49 400.253C1208.97 406.177 1203.69 411.27 1197.8 415.384C1197.26 415.773 1196.62 415.952 1195.99 415.952ZM1136.06 421.455C1135.68 421.455 1135.28 421.381 1134.9 421.234C1127.95 418.467 1121.61 414.753 1116.09 410.186C1114.74 409.081 1114.55 407.093 1115.66 405.746C1116.77 404.399 1118.76 404.21 1120.11 405.325C1125.13 409.46 1130.88 412.838 1137.23 415.363C1138.85 416.005 1139.64 417.846 1139 419.456C1138.5 420.697 1137.32 421.455 1136.06 421.455ZM1161.94 426.463C1160 426.463 1158.03 426.379 1156.08 426.221C1154.35 426.074 1153.06 424.548 1153.2 422.812C1153.35 421.076 1154.88 419.761 1156.61 419.929C1163.34 420.487 1170.1 419.971 1176.34 418.414C1178.04 417.983 1179.75 419.024 1180.17 420.708C1180.59 422.402 1179.57 424.117 1177.87 424.538C1172.77 425.811 1167.42 426.463 1161.94 426.463Z" fill="white" stroke="#6D0018" stroke-width="0.133333"/>
<path d="M1532.33 321.581C1531.94 321.581 1531.54 321.507 1531.16 321.35C1527.94 320.066 1524.66 318.793 1521.4 317.551C1519.78 316.93 1518.96 315.11 1519.58 313.479C1520.19 311.848 1522.01 311.028 1523.65 311.648C1526.93 312.901 1530.25 314.195 1533.5 315.489C1535.12 316.131 1535.91 317.972 1535.25 319.592C1534.77 320.823 1533.58 321.581 1532.33 321.581Z" fill="white" stroke="#6D0018" stroke-width="0.133333"/>
</svg>
