<svg width="794" height="652" viewBox="0 0 794 652" fill="none" xmlns="http://www.w3.org/2000/svg">
<g clip-path="url(#clip0_1350_600)">
<mask id="mask0_1350_600" style="mask-type:luminance" maskUnits="userSpaceOnUse" x="-101" y="-200" width="1040" height="1040">
<path d="M-100.637 -199.937H938.626V839.325H-100.637V-199.937Z" fill="white"/>
</mask>
<g mask="url(#mask0_1350_600)">
<path d="M452.158 384.77H385.832C334.285 384.77 292.498 426.557 292.498 478.102V566.287C328.369 591.29 371.954 605.996 418.995 605.996C466.036 605.996 509.621 591.29 545.49 566.287V478.102C545.49 426.557 503.705 384.77 452.158 384.77Z" stroke="#65318E" stroke-width="1.033" stroke-miterlimit="10" stroke-linejoin="round"/>
<path d="M327.809 275.605H314.303C302.26 275.605 292.497 265.842 292.497 253.799V228.41C292.497 216.367 302.26 206.604 314.303 206.604H327.809V275.605Z" stroke="#65318E" stroke-width="1.033" stroke-miterlimit="10" stroke-linejoin="round"/>
<path d="M510.18 275.605H523.686C535.727 275.605 545.49 265.842 545.49 253.799V228.41C545.49 216.367 535.727 206.604 523.686 206.604H510.18V275.605Z" stroke="#65318E" stroke-width="1.033" stroke-miterlimit="10" stroke-linejoin="round"/>
<path d="M524.961 273.71C524.961 273.71 530.51 330.755 434.375 328.186" stroke="#65318E" stroke-width="1.033" stroke-miterlimit="10" stroke-linejoin="round"/>
<path d="M440.707 326.707C441.352 333.687 436.212 339.868 429.232 340.513C422.248 341.155 416.069 336.017 415.424 329.033C414.782 322.053 419.922 315.872 426.902 315.23C433.886 314.585 440.065 319.725 440.707 326.707Z" fill="#65318E"/>
<path d="M435.87 232.318C435.87 232.318 435.87 205.652 454.781 205.42C473.689 205.185 473.28 232.318 473.28 232.318" stroke="#65318E" stroke-width="1.033" stroke-miterlimit="10" stroke-linecap="round" stroke-linejoin="round"/>
<path d="M365.093 232.318C365.093 232.318 365.093 205.652 384.003 205.42C402.914 205.185 402.502 232.318 402.502 232.318" stroke="#65318E" stroke-width="1.033" stroke-miterlimit="10" stroke-linecap="round" stroke-linejoin="round"/>
<path d="M387.894 270.313H450.096C450.096 270.313 455.128 309.691 418.995 309.691C382.864 309.691 387.894 270.313 387.894 270.313Z" stroke="#65318E" stroke-width="1.033" stroke-miterlimit="10" stroke-linecap="round" stroke-linejoin="round"/>
<path d="M414.625 255.609C414.625 255.609 420.347 261.294 425.923 255.609" stroke="#65318E" stroke-width="1.033" stroke-miterlimit="10" stroke-linecap="round" stroke-linejoin="round"/>
<path d="M310.153 207.447C310.153 207.447 303.319 100.176 420.274 100.176C537.23 100.176 527.848 207.447 527.848 207.447" stroke="#65318E" stroke-width="1.033" stroke-miterlimit="10" stroke-linejoin="round"/>
<path d="M314.458 578.45V510.551" stroke="#65318E" stroke-width="1.033" stroke-miterlimit="10" stroke-linecap="round" stroke-linejoin="round"/>
<path d="M314.458 469.328V488.379" stroke="#65318E" stroke-width="1.033" stroke-miterlimit="10" stroke-linecap="round" stroke-linejoin="round"/>
<path d="M310.153 275.199V241.105" stroke="#65318E" stroke-width="1.033" stroke-miterlimit="10" stroke-linecap="round" stroke-linejoin="round"/>
<path d="M525.21 275.199V241.105" stroke="#65318E" stroke-width="1.033" stroke-miterlimit="10" stroke-linecap="round" stroke-linejoin="round"/>
<path d="M461.604 152.267C461.604 152.267 419.535 205.155 327.81 206.714L310.153 207.446C310.153 207.446 279.214 140.975 341.569 100.325C403.798 59.7583 461.371 83.0669 461.604 83.1604C465.277 84.6528 475.68 81.2461 480.168 81.6473C511.568 84.4533 524.17 118.082 528.944 144.809C531.592 159.613 532.447 174.821 531.858 189.841C531.087 209.545 523.835 209.036 506.247 203.7C495.996 200.589 486.093 195.654 478.307 188.186C473.579 183.653 455.475 159.164 461.604 152.267Z" stroke="#65318E" stroke-width="1.033" stroke-miterlimit="10" stroke-linejoin="round"/>
<path d="M506.246 203.7C495.997 200.588 486.095 195.654 478.308 188.188C473.578 183.652 455.474 159.163 461.603 152.266C461.603 152.266 419.534 205.154 327.809 206.715V259.342C327.809 309.7 368.633 350.524 418.994 350.524C469.354 350.524 510.178 309.7 510.178 259.342V204.851C508.927 204.5 507.622 204.117 506.246 203.7Z" stroke="#65318E" stroke-width="1.033" stroke-miterlimit="10" stroke-linejoin="round"/>
<path d="M422.149 350.446C421.103 350.512 420.052 350.552 418.994 350.552C417.938 350.552 416.888 350.512 415.845 350.446C408.312 350.19 401.014 349.02 394.051 347.043V384.771H443.936V347.043C436.977 349.018 429.679 350.19 422.149 350.446Z" stroke="#65318E" stroke-width="1.033" stroke-miterlimit="10" stroke-linejoin="round"/>
<path d="M317.147 275.605V414.92" stroke="#65318E" stroke-width="1.033" stroke-miterlimit="10" stroke-linejoin="round"/>
<path d="M519.456 275.605V414.92" stroke="#65318E" stroke-width="1.033" stroke-miterlimit="10" stroke-linejoin="round"/>
<path d="M473.7 221.94C473.947 222.164 474.596 222.438 475.095 222.646C475.633 222.869 476.194 223.062 476.766 223.23C477.907 223.567 479.094 223.792 480.31 223.877C481.528 223.964 482.75 223.852 483.993 223.563C485.244 223.276 486.418 222.677 487.587 221.908C486.955 223.12 486.138 224.363 485.028 225.367C483.933 226.373 482.642 227.265 481.239 227.928C479.84 228.595 478.348 229.106 476.811 229.466C476.042 229.647 475.265 229.792 474.467 229.894C473.633 229.994 472.95 230.092 471.883 230.052L473.7 221.94Z" fill="#65318E"/>
<path d="M366.001 230.053C364.935 230.093 364.251 229.995 363.418 229.895C362.622 229.793 361.842 229.646 361.073 229.465C359.537 229.105 358.045 228.596 356.646 227.929C355.243 227.264 353.952 226.372 352.857 225.368C351.747 224.362 350.93 223.121 350.298 221.909C351.466 222.678 352.641 223.277 353.892 223.564C355.135 223.853 356.357 223.963 357.575 223.878C358.791 223.79 359.978 223.566 361.119 223.231C361.69 223.063 362.252 222.87 362.79 222.647C363.291 222.439 363.937 222.165 364.185 221.941L366.001 230.053Z" fill="#65318E"/>
<path d="M418.995 505.629L478.684 388.616C470.272 386.126 461.376 384.771 452.157 384.771H418.995H385.832C376.614 384.771 367.717 386.126 359.306 388.616L418.995 505.629Z" stroke="#65318E" stroke-width="1.033" stroke-miterlimit="10" stroke-linejoin="round"/>
<path d="M378.99 427.203C378.99 427.203 415.244 441.794 459.001 427.203L418.995 505.628L378.99 427.203Z" stroke="#65318E" stroke-width="1.033" stroke-miterlimit="10" stroke-linejoin="round"/>
<path d="M335.051 295.008V350.525" stroke="#65318E" stroke-width="1.033" stroke-miterlimit="10" stroke-linecap="round" stroke-linejoin="round"/>
<path d="M335.051 368.446V380.398" stroke="#65318E" stroke-width="1.033" stroke-miterlimit="10" stroke-linecap="round" stroke-linejoin="round"/>
<path d="M355.308 324.58V389.877" stroke="#65318E" stroke-width="1.033" stroke-miterlimit="10" stroke-linecap="round" stroke-linejoin="round"/>
<path d="M377.557 340.567V368.446" stroke="#65318E" stroke-width="1.033" stroke-miterlimit="10" stroke-linecap="round" stroke-linejoin="round"/>
<path d="M465.465 337.8V385.723" stroke="#65318E" stroke-width="1.033" stroke-miterlimit="10" stroke-linecap="round" stroke-linejoin="round"/>
<path d="M503.806 292.827V362.838" stroke="#65318E" stroke-width="1.033" stroke-miterlimit="10" stroke-linecap="round" stroke-linejoin="round"/>
<path d="M503.806 374.422V400.358" stroke="#65318E" stroke-width="1.033" stroke-miterlimit="10" stroke-linecap="round" stroke-linejoin="round"/>
<path d="M484.495 322.767V345.263" stroke="#65318E" stroke-width="1.033" stroke-miterlimit="10" stroke-linecap="round" stroke-linejoin="round"/>
<path d="M484.495 357.227V365.907" stroke="#65318E" stroke-width="1.033" stroke-miterlimit="10" stroke-linecap="round" stroke-linejoin="round"/>
<path d="M484.495 377.453V391.129" stroke="#65318E" stroke-width="1.033" stroke-miterlimit="10" stroke-linecap="round" stroke-linejoin="round"/>
<path d="M368.73 407.092C368.73 407.092 417.676 419.064 469.258 407.092" stroke="#65318E" stroke-width="1.033" stroke-miterlimit="10" stroke-linejoin="round"/>
<path d="M511.556 500.002C511.556 511.681 502.086 521.151 490.407 521.151C478.728 521.151 469.258 511.681 469.258 500.002C469.258 488.323 478.728 478.853 490.407 478.853C502.086 478.853 511.556 488.323 511.556 500.002Z" stroke="#65318E" stroke-width="1.033" stroke-miterlimit="10" stroke-linejoin="round"/>
<path d="M172.916 271.064C144.509 275.19 110.566 254.319 80.9515 220.323C51.9685 187.054 35.1782 150.788 42.135 123.281L66.8154 101.783L94.7654 133.867L76.4806 149.794C76.4806 149.794 86.9834 205.888 148.842 232.859L167.127 216.931L196.436 250.574L172.916 271.064Z" stroke="#65318E" stroke-width="1.033" stroke-miterlimit="10" stroke-linecap="round" stroke-linejoin="round"/>
</g>
<path d="M153.035 103.853C153.035 103.096 153.154 102.425 153.392 101.841C153.651 101.256 153.965 100.737 154.333 100.283C154.722 99.8282 155.134 99.4063 155.566 99.0168C155.999 98.6273 156.399 98.2595 156.767 97.9132C157.157 97.5454 157.471 97.1667 157.709 96.7772C157.968 96.3877 158.098 95.955 158.098 95.4789C158.098 94.6999 157.773 94.0724 157.124 93.5964C156.497 93.1203 155.653 92.8823 154.593 92.8823C153.576 92.8823 152.667 93.0987 151.866 93.5314C151.066 93.9426 150.406 94.5268 149.886 95.2842L145.959 92.9797C146.824 91.6597 148.025 90.6103 149.562 89.8313C151.098 89.0306 152.959 88.6303 155.144 88.6303C156.767 88.6303 158.195 88.8684 159.429 89.3444C160.662 89.7988 161.625 90.4696 162.318 91.3568C163.032 92.244 163.389 93.3367 163.389 94.635C163.389 95.4789 163.259 96.2254 162.999 96.8746C162.74 97.5237 162.404 98.0863 161.993 98.5624C161.582 99.0384 161.138 99.482 160.662 99.8932C160.208 100.304 159.775 100.705 159.364 101.094C158.953 101.484 158.607 101.895 158.325 102.327C158.066 102.76 157.936 103.269 157.936 103.853H153.035ZM155.501 112C154.593 112 153.846 111.708 153.262 111.124C152.678 110.539 152.386 109.847 152.386 109.046C152.386 108.224 152.678 107.542 153.262 107.001C153.846 106.439 154.593 106.158 155.501 106.158C156.432 106.158 157.178 106.439 157.741 107.001C158.325 107.542 158.617 108.224 158.617 109.046C158.617 109.847 158.325 110.539 157.741 111.124C157.178 111.708 156.432 112 155.501 112Z" fill="#65318E"/>
<mask id="mask1_1350_600" style="mask-type:luminance" maskUnits="userSpaceOnUse" x="-101" y="-200" width="1040" height="1040">
<path d="M-100.637 -199.937H938.626V839.325H-100.637V-199.937Z" fill="white"/>
</mask>
<g mask="url(#mask1_1350_600)">
<path d="M161.034 76.4123C131.557 76.4123 107.662 92.4398 107.662 112.213C107.662 124.572 116.999 135.469 131.199 141.902C130.189 149.262 126.857 160.351 116.491 169.742C116.491 169.742 138.021 165.704 152.66 147.571C155.389 147.862 158.185 148.013 161.034 148.013C190.512 148.013 214.407 131.986 214.407 112.213C214.407 92.4398 190.512 76.4123 161.034 76.4123Z" stroke="#65318E" stroke-width="1.033" stroke-miterlimit="10" stroke-linecap="round" stroke-linejoin="round"/>
</g>
<path d="M211.654 157.569C212.52 157.569 213.266 157.277 213.894 156.693C214.5 156.087 214.802 155.319 214.802 154.388C214.802 153.458 214.5 152.711 213.894 152.149C213.266 151.565 212.52 151.272 211.654 151.272C210.767 151.272 210.02 151.565 209.414 152.149C208.809 152.711 208.506 153.458 208.506 154.388C208.506 155.319 208.809 156.087 209.414 156.693C210.02 157.277 210.767 157.569 211.654 157.569ZM203.159 157.569C204.025 157.569 204.771 157.277 205.399 156.693C206.005 156.087 206.308 155.319 206.308 154.388C206.308 153.458 206.005 152.711 205.399 152.149C204.771 151.565 204.025 151.272 203.159 151.272C202.272 151.272 201.526 151.565 200.92 152.149C200.314 152.711 200.011 153.458 200.011 154.388C200.011 155.319 200.314 156.087 200.92 156.693C201.526 157.277 202.272 157.569 203.159 157.569ZM194.664 157.569C195.53 157.569 196.277 157.277 196.904 156.693C197.51 156.087 197.813 155.319 197.813 154.388C197.813 153.458 197.51 152.711 196.904 152.149C196.277 151.565 195.53 151.272 194.664 151.272C193.777 151.272 193.031 151.565 192.425 152.149C191.819 152.711 191.516 153.458 191.516 154.388C191.516 155.319 191.819 156.087 192.425 156.693C193.031 157.277 193.777 157.569 194.664 157.569Z" fill="#65318E"/>
<mask id="mask2_1350_600" style="mask-type:luminance" maskUnits="userSpaceOnUse" x="-101" y="-200" width="1040" height="1040">
<path d="M-100.637 -199.937H938.626V839.325H-100.637V-199.937Z" fill="white"/>
</mask>
<g mask="url(#mask2_1350_600)">
<path d="M223.146 195.828C237.347 189.395 246.684 178.497 246.684 166.139C246.684 149.325 229.401 135.225 206.105 131.381C196.637 141.375 179.996 148.014 161.034 148.014C158.186 148.014 155.389 147.86 152.66 147.571C149.109 151.969 145.154 155.532 141.199 158.415C140.384 160.903 139.939 163.484 139.939 166.139C139.939 185.912 163.836 201.939 193.311 201.939C196.161 201.939 198.957 201.785 201.686 201.498C216.327 219.629 237.854 223.668 237.854 223.668C227.491 214.275 224.159 203.188 223.146 195.828Z" stroke="#65318E" stroke-width="1.033" stroke-miterlimit="10" stroke-linecap="round" stroke-linejoin="round"/>
<path d="M762.887 177.524C762.887 214.179 733.172 243.894 696.518 243.894C659.865 243.894 630.15 214.179 630.15 177.524C630.15 140.869 659.865 111.155 696.518 111.155C733.172 111.155 762.887 140.869 762.887 177.524Z" stroke="#65318E" stroke-width="1.033" stroke-miterlimit="10" stroke-linecap="round" stroke-linejoin="round"/>
<path d="M619.978 117.446C637.752 95.183 665.124 80.916 695.826 80.916C749.393 80.916 792.818 124.341 792.818 177.908C792.818 217.787 768.751 252.045 734.347 266.95" stroke="#65318E" stroke-width="1.033" stroke-miterlimit="10" stroke-linecap="round" stroke-linejoin="round"/>
<path d="M733.919 177.524C733.919 214.179 717.173 243.894 696.519 243.894C675.86 243.894 659.115 214.179 659.115 177.524C659.115 140.869 675.86 111.155 696.519 111.155C717.173 111.155 733.919 140.869 733.919 177.524Z" stroke="#65318E" stroke-width="1.033" stroke-miterlimit="10" stroke-linecap="round" stroke-linejoin="round"/>
<path d="M696.518 111.155V243.892" stroke="#65318E" stroke-width="1.033" stroke-miterlimit="10" stroke-linecap="round" stroke-linejoin="round"/>
<path d="M630.15 177.524H762.886" stroke="#65318E" stroke-width="1.033" stroke-miterlimit="10" stroke-linecap="round" stroke-linejoin="round"/>
<path d="M637.574 122.533L613.736 120.569L615.719 96.4805" stroke="#65318E" stroke-width="1.033" stroke-miterlimit="10" stroke-linecap="round" stroke-linejoin="round"/>
</g>
<path d="M606.283 271.994V268.828L614.425 261.138C615.068 260.555 615.541 260.033 615.842 259.57C616.144 259.108 616.345 258.686 616.446 258.304C616.566 257.922 616.626 257.57 616.626 257.249C616.626 256.404 616.335 255.761 615.752 255.319C615.189 254.856 614.355 254.625 613.249 254.625C612.365 254.625 611.54 254.796 610.776 255.138C610.033 255.479 609.399 256.012 608.877 256.736L605.318 254.444C606.123 253.238 607.248 252.283 608.696 251.579C610.143 250.876 611.812 250.524 613.701 250.524C615.27 250.524 616.637 250.785 617.803 251.308C618.989 251.811 619.903 252.524 620.547 253.449C621.21 254.374 621.542 255.479 621.542 256.766C621.542 257.45 621.451 258.133 621.27 258.817C621.109 259.48 620.768 260.184 620.245 260.927C619.742 261.671 618.999 262.505 618.014 263.43L611.259 269.793L610.324 268.014H622.235V271.994H606.283ZM623.686 267.561V264.275L633.637 250.886H638.763L629.023 264.275L626.641 263.581H643.256V267.561H623.686ZM635.054 271.994V267.561L635.205 263.581V259.631H639.818V271.994H635.054ZM660.518 250.886H665.403V271.994H660.518V250.886ZM650.929 271.994H646.044V250.886H650.929V271.994ZM660.88 263.34H650.567V259.209H660.88V263.34Z" fill="#65318E"/>
<mask id="mask3_1350_600" style="mask-type:luminance" maskUnits="userSpaceOnUse" x="-101" y="-200" width="1040" height="1040">
<path d="M-100.637 -199.937H938.626V839.325H-100.637V-199.937Z" fill="white"/>
</mask>
<g mask="url(#mask3_1350_600)">
<path d="M225.027 492.54H11.9779V357.226H225.027V492.54Z" stroke="#65318E" stroke-width="1.033" stroke-miterlimit="10" stroke-linecap="round" stroke-linejoin="round"/>
<path d="M209.091 468.413H27.9119V373.74H209.091V468.413Z" stroke="#65318E" stroke-width="1.033" stroke-miterlimit="10" stroke-linecap="round" stroke-linejoin="round"/>
<path d="M222.947 511.594H14.0558C6.73729 511.594 0.805176 505.662 0.805176 498.344V492.54H236.198V498.344C236.198 505.662 230.266 511.594 222.947 511.594Z" stroke="#65318E" stroke-width="1.033" stroke-miterlimit="10" stroke-linecap="round" stroke-linejoin="round"/>
<path d="M172.544 452.252H64.4606V389.896H172.544V452.252Z" stroke="#65318E" stroke-width="1.033" stroke-miterlimit="10" stroke-linecap="round" stroke-linejoin="round"/>
<path d="M64.46 389.897L118.502 421.075L172.543 389.897H64.46Z" stroke="#65318E" stroke-width="1.033" stroke-miterlimit="10" stroke-linecap="round" stroke-linejoin="round"/>
<path d="M787.153 433.705C788.479 429.396 789.192 424.821 789.192 420.078C789.192 394.485 768.448 373.739 742.856 373.739C717.265 373.739 696.519 394.485 696.519 420.078C696.519 424.821 697.232 429.396 698.558 433.705C699.306 436.145 700.258 438.496 701.383 440.745L742.856 505.63L784.328 440.745C785.453 438.496 786.405 436.145 787.153 433.705Z" stroke="#65318E" stroke-width="1.033" stroke-miterlimit="10" stroke-linecap="round" stroke-linejoin="round"/>
<path d="M766.928 420.078C766.928 433.372 756.151 444.149 742.857 444.149C729.56 444.149 718.783 433.372 718.783 420.078C718.783 406.784 729.56 396.005 742.857 396.005C756.151 396.005 766.928 406.784 766.928 420.078Z" stroke="#65318E" stroke-width="1.033" stroke-miterlimit="10" stroke-linecap="round" stroke-linejoin="round"/>
<path d="M598.298 389.199C583.916 389.199 572.26 377.543 572.26 363.161C572.26 348.78 583.916 337.119 598.298 337.119C612.679 337.119 624.337 348.78 624.337 363.161C624.337 377.543 612.679 389.199 598.298 389.199ZM648.498 374.385V351.933H638.355C637.453 348.705 636.172 345.635 634.56 342.773L641.732 335.6L625.859 319.724L618.686 326.897C615.824 325.286 612.754 324.006 609.524 323.102V312.959H587.071V323.102C583.841 324.006 580.771 325.286 577.909 326.897L570.736 319.724L554.863 335.6L562.036 342.773C560.423 345.635 559.142 348.705 558.24 351.933H548.097V374.385H558.24C559.142 377.615 560.423 380.685 562.036 383.545L554.863 390.718L570.736 406.596L577.909 399.423C580.771 401.034 583.841 402.317 587.071 403.219V413.362H609.524V403.219C612.754 402.317 615.824 401.034 618.686 399.423L625.859 406.596L641.732 390.718L634.56 383.545C636.172 380.685 637.453 377.615 638.355 374.385H648.498Z" stroke="#65318E" stroke-width="1.033" stroke-miterlimit="10" stroke-linejoin="round"/>
<path d="M648.109 462.459C638.797 463.668 630.267 457.098 629.057 447.784C627.85 438.47 634.42 429.94 643.734 428.732C653.046 427.523 661.576 434.095 662.786 443.407C663.993 452.719 657.423 461.251 648.109 462.459ZM679.374 448.645L677.489 434.105L670.921 434.96C670.065 432.943 668.976 431.065 667.691 429.346L671.734 424.097L660.119 415.149L656.076 420.4C654.087 419.595 651.992 419.026 649.824 418.71L648.972 412.142L634.433 414.029L635.285 420.597C633.269 421.453 631.387 422.54 629.671 423.825L624.422 419.784L615.476 431.399L620.725 435.442C619.92 437.429 619.349 439.526 619.037 441.692L612.469 442.544L614.354 457.086L620.922 456.233C621.778 458.25 622.866 460.129 624.152 461.845L620.107 467.094L631.724 476.042L635.767 470.793C637.756 471.596 639.849 472.167 642.017 472.481L642.869 479.049L657.411 477.162L656.556 470.594C658.572 469.738 660.454 468.65 662.172 467.366L667.419 471.409L676.367 459.794L671.118 455.749C671.921 453.762 672.492 451.667 672.806 449.499L679.374 448.645Z" stroke="#65318E" stroke-width="1.033" stroke-miterlimit="10" stroke-linejoin="round"/>
</g>
<path d="M153.035 103.853C153.035 103.096 153.154 102.425 153.392 101.841C153.651 101.256 153.965 100.737 154.333 100.283C154.722 99.8282 155.134 99.4063 155.566 99.0168C155.999 98.6273 156.399 98.2595 156.767 97.9132C157.157 97.5454 157.471 97.1667 157.709 96.7772C157.968 96.3877 158.098 95.955 158.098 95.4789C158.098 94.6999 157.773 94.0724 157.124 93.5964C156.497 93.1203 155.653 92.8823 154.593 92.8823C153.576 92.8823 152.667 93.0987 151.866 93.5314C151.066 93.9426 150.406 94.5268 149.886 95.2842L145.959 92.9797C146.824 91.6597 148.025 90.6103 149.562 89.8313C151.098 89.0306 152.959 88.6303 155.144 88.6303C156.767 88.6303 158.195 88.8684 159.429 89.3444C160.662 89.7988 161.625 90.4696 162.318 91.3568C163.032 92.244 163.389 93.3367 163.389 94.635C163.389 95.4789 163.259 96.2254 162.999 96.8746C162.74 97.5237 162.404 98.0863 161.993 98.5624C161.582 99.0384 161.138 99.482 160.662 99.8932C160.208 100.304 159.775 100.705 159.364 101.094C158.953 101.484 158.607 101.895 158.325 102.327C158.066 102.76 157.936 103.269 157.936 103.853H153.035ZM155.501 112C154.593 112 153.846 111.708 153.262 111.124C152.678 110.539 152.386 109.847 152.386 109.046C152.386 108.224 152.678 107.542 153.262 107.001C153.846 106.439 154.593 106.158 155.501 106.158C156.432 106.158 157.178 106.439 157.741 107.001C158.325 107.542 158.617 108.224 158.617 109.046C158.617 109.847 158.325 110.539 157.741 111.124C157.178 111.708 156.432 112 155.501 112Z" fill="#65318E"/>
<path d="M127.137 511.595C128.04 512.07 129.041 512.343 130.064 512.343C131.047 512.343 132.039 512.083 132.964 511.595H127.137Z" fill="#65318E"/>
<path d="M347.359 188.393C343.349 188.89 339.244 189.245 335.052 189.44" stroke="#65318E" stroke-width="1.033" stroke-miterlimit="10" stroke-linecap="round" stroke-linejoin="round"/>
<path d="M446.362 141.929C446.362 141.929 415.031 173.386 365.094 185.2" stroke="#65318E" stroke-width="1.033" stroke-miterlimit="10" stroke-linecap="round" stroke-linejoin="round"/>
<path d="M353.376 170.431C346.752 171.928 339.828 173.129 332.638 173.934" stroke="#65318E" stroke-width="1.033" stroke-miterlimit="10" stroke-linecap="round" stroke-linejoin="round"/>
<path d="M381.321 161.958C377.513 163.41 373.541 164.803 369.416 166.1" stroke="#65318E" stroke-width="1.033" stroke-miterlimit="10" stroke-linecap="round" stroke-linejoin="round"/>
<path d="M435.87 131.381C435.87 131.381 422.553 142.698 399.987 153.812" stroke="#65318E" stroke-width="1.033" stroke-miterlimit="10" stroke-linecap="round" stroke-linejoin="round"/>
<path d="M428.066 119.463C428.066 119.463 389.426 148.909 340.296 158.263" stroke="#65318E" stroke-width="1.033" stroke-miterlimit="10" stroke-linecap="round" stroke-linejoin="round"/>
<path d="M405.728 115.999C405.728 115.999 373.752 130.742 350.3 142.596" stroke="#65318E" stroke-width="1.033" stroke-miterlimit="10" stroke-linecap="round" stroke-linejoin="round"/>
<path d="M478.683 148.216C478.683 148.216 488.934 175.239 510.177 185.199" stroke="#65318E" stroke-width="1.033" stroke-miterlimit="10" stroke-linecap="round" stroke-linejoin="round"/>
<path d="M470.266 127.777C470.266 127.777 493.352 139.901 502.767 159.994" stroke="#65318E" stroke-width="1.033" stroke-miterlimit="10" stroke-linecap="round" stroke-linejoin="round"/>
<path opacity="0.6" d="M408.216 650.96C587.687 650.96 733.177 505.47 733.177 326C733.177 146.529 587.687 1.03857 408.216 1.03857C228.745 1.03857 83.255 146.529 83.255 326C83.255 505.47 228.745 650.96 408.216 650.96Z" stroke="#65318E" stroke-width="1.333" stroke-linejoin="round" stroke-dasharray="4 4"/>
</g>
<defs>
<clipPath id="clip0_1350_600">
<rect width="793.623" height="652" fill="white"/>
</clipPath>
</defs>
</svg>
