<svg width="349" height="349" viewBox="0 0 349 349" fill="none" xmlns="http://www.w3.org/2000/svg">
<path d="M321.14 11.1809H277.216C276.349 11.1809 275.647 11.8832 275.647 12.7496V40.987C275.647 41.8534 276.349 42.5558 277.216 42.5558H289.766C290.632 42.5558 291.334 43.2581 291.334 44.1245V56.6744C291.334 57.5408 292.037 58.2432 292.903 58.2432H336.828C337.694 58.2432 338.397 57.5408 338.397 56.6744V28.4371C338.397 27.5707 337.694 26.8683 336.828 26.8683H324.278C323.412 26.8683 322.709 26.166 322.709 25.2996V12.7496C322.709 11.8832 322.007 11.1809 321.14 11.1809ZM258.391 11.1809H214.466C213.599 11.1809 212.897 11.8832 212.897 12.7496V25.2996C212.897 26.166 213.599 26.8683 214.466 26.8683H227.016C227.882 26.8683 228.585 27.5707 228.585 28.4371V40.987C228.585 41.8534 229.287 42.5558 230.153 42.5558H242.703C243.57 42.5558 244.272 43.2581 244.272 44.1245V58.2432H258.391C259.257 58.2432 259.959 57.5408 259.959 56.6744V12.7496C259.959 11.8832 259.257 11.1809 258.391 11.1809ZM195.641 11.1809H151.716C150.85 11.1809 150.147 11.8832 150.147 12.7496V40.987C150.147 41.8534 149.445 42.5558 148.579 42.5558H136.029C135.162 42.5558 134.46 41.8534 134.46 40.987V12.7496C134.46 11.8832 133.758 11.1809 132.891 11.1809H120.341C119.475 11.1809 118.772 11.8832 118.772 12.7496V119.424C118.772 120.291 118.07 120.993 117.204 120.993H10.5292C9.6628 120.993 8.96045 121.695 8.96045 122.562V150.799C8.96045 151.666 9.6628 152.368 10.5292 152.368H23.0791C23.9455 152.368 24.6479 151.666 24.6479 150.799V138.249C24.6479 137.383 25.3502 136.68 26.2166 136.68H54.454C55.3204 136.68 56.0228 137.383 56.0228 138.249V182.174C56.0228 183.04 56.7251 183.743 57.5915 183.743H85.8289C86.6953 183.743 87.3976 183.04 87.3976 182.174V138.249C87.3976 137.383 88.1 136.68 88.9664 136.68H134.46V122.562C134.46 121.695 135.162 120.993 136.029 120.993H148.579C149.445 120.993 150.147 120.291 150.147 119.424V105.306H136.029C135.162 105.306 134.46 104.603 134.46 103.737V75.4994C134.46 74.633 135.162 73.9306 136.029 73.9306H148.579C149.445 73.9306 150.147 73.2283 150.147 72.3619V59.812C150.147 58.9456 150.85 58.2432 151.716 58.2432H165.835V28.4371C165.835 27.5707 166.537 26.8683 167.404 26.8683H195.641C196.507 26.8683 197.21 26.166 197.21 25.2996V12.7496C197.21 11.8832 196.507 11.1809 195.641 11.1809ZM101.516 26.8683H26.2166C25.3502 26.8683 24.6479 27.5707 24.6479 28.4371V103.737C24.6479 104.603 25.3502 105.306 26.2166 105.306H101.516C102.383 105.306 103.085 104.603 103.085 103.737V28.4371C103.085 27.5707 102.383 26.8683 101.516 26.8683ZM211.328 42.5558H183.091C182.225 42.5558 181.522 43.2581 181.522 44.1245V56.6744C181.522 57.5408 180.82 58.2432 179.953 58.2432H165.835V89.6181H181.522V75.4994C181.522 74.633 182.225 73.9306 183.091 73.9306H227.016C227.882 73.9306 228.585 74.633 228.585 75.4994V105.306H244.272V58.2432H214.466C213.599 58.2432 212.897 57.5408 212.897 56.6744V44.1245C212.897 43.2581 212.195 42.5558 211.328 42.5558ZM87.3976 44.1245V88.0493C87.3976 88.9157 86.6953 89.6181 85.8289 89.6181H41.9041C41.0377 89.6181 40.3353 88.9157 40.3353 88.0493V44.1245C40.3353 43.2581 41.0377 42.5558 41.9041 42.5558H85.8289C86.6953 42.5558 87.3976 43.2581 87.3976 44.1245ZM336.828 73.9306H261.528C260.662 73.9306 259.959 74.633 259.959 75.4994V88.0493C259.959 88.9157 260.662 89.6181 261.528 89.6181H274.078C274.945 89.6181 275.647 90.3204 275.647 91.1868V103.737C275.647 104.603 276.349 105.306 277.216 105.306H321.14C322.007 105.306 322.709 106.008 322.709 106.874V135.112C322.709 135.978 323.412 136.68 324.278 136.68H336.828C337.694 136.68 338.397 135.978 338.397 135.112V75.4994C338.397 74.633 337.694 73.9306 336.828 73.9306ZM195.641 89.6181H181.522V105.306H197.21V91.1868C197.21 90.3204 196.507 89.6181 195.641 89.6181ZM164.266 89.6181H151.716C150.85 89.6181 150.147 90.3204 150.147 91.1868V105.306H165.835V89.6181H164.266ZM258.391 105.306H244.272V120.993H258.391C259.257 120.993 259.959 120.291 259.959 119.424V106.874C259.959 106.008 259.257 105.306 258.391 105.306ZM227.016 105.306H197.21V120.993H211.328C212.195 120.993 212.897 121.695 212.897 122.562V136.68H227.016C227.882 136.68 228.585 137.383 228.585 138.249V150.799C228.585 151.666 227.882 152.368 227.016 152.368H212.897V166.487C212.897 167.353 213.599 168.055 214.466 168.055H227.016C227.882 168.055 228.585 168.758 228.585 169.624V197.861C228.585 198.728 227.882 199.43 227.016 199.43H214.466C213.599 199.43 212.897 200.133 212.897 200.999V213.549C212.897 214.415 212.195 215.118 211.328 215.118H198.778C197.912 215.118 197.21 214.415 197.21 213.549V169.624C197.21 168.758 196.507 168.055 195.641 168.055H167.404C166.537 168.055 165.835 168.758 165.835 169.624V182.174C165.835 183.04 166.537 183.743 167.404 183.743H179.953C180.82 183.743 181.522 184.445 181.522 185.311V197.861C181.522 198.728 180.82 199.43 179.953 199.43H136.029C135.162 199.43 134.46 198.728 134.46 197.861V169.624C134.46 168.758 135.162 168.055 136.029 168.055H148.579C149.445 168.055 150.147 167.353 150.147 166.487V138.249C150.147 137.383 149.445 136.68 148.579 136.68H134.46V150.799C134.46 151.666 133.758 152.368 132.891 152.368H104.654C103.787 152.368 103.085 153.07 103.085 153.937V166.487C103.085 167.353 103.787 168.055 104.654 168.055H117.204C118.07 168.055 118.772 168.758 118.772 169.624V182.174C118.772 183.04 118.07 183.743 117.204 183.743H104.654C103.787 183.743 103.085 184.445 103.085 185.311V197.861C103.085 198.728 103.787 199.43 104.654 199.43H117.204C118.07 199.43 118.772 200.133 118.772 200.999V213.549C118.772 214.415 118.07 215.118 117.204 215.118H73.2789C72.4125 215.118 71.7102 214.415 71.7102 213.549V200.999C71.7102 200.133 71.0078 199.43 70.1415 199.43H40.3353V213.549C40.3353 214.415 39.633 215.118 38.7666 215.118H10.5292C9.6628 215.118 8.96045 215.82 8.96045 216.686V229.236C8.96045 230.103 9.6628 230.805 10.5292 230.805H117.204C118.07 230.805 118.772 231.507 118.772 232.374V339.048C118.772 339.915 119.475 340.617 120.341 340.617H132.891C133.758 340.617 134.46 339.915 134.46 339.048V279.436C134.46 278.57 135.162 277.867 136.029 277.867H150.147V262.18H136.029C135.162 262.18 134.46 261.478 134.46 260.611V232.374C134.46 231.507 135.162 230.805 136.029 230.805H148.579C149.445 230.805 150.147 231.507 150.147 232.374V262.18H164.266C165.132 262.18 165.835 261.478 165.835 260.611V232.374C165.835 231.507 166.537 230.805 167.404 230.805H179.953C180.82 230.805 181.522 231.507 181.522 232.374V260.611C181.522 261.478 182.225 262.18 183.091 262.18H195.641C196.507 262.18 197.21 261.478 197.21 260.611V232.374C197.21 231.507 197.912 230.805 198.778 230.805H211.328C212.195 230.805 212.897 231.507 212.897 232.374V307.674C212.897 308.54 212.195 309.242 211.328 309.242H198.778C197.912 309.242 197.21 309.945 197.21 310.811V324.93H211.328C212.195 324.93 212.897 325.632 212.897 326.498V339.048C212.897 339.915 213.599 340.617 214.466 340.617H227.016C227.882 340.617 228.585 339.915 228.585 339.048V232.374C228.585 231.507 229.287 230.805 230.153 230.805H336.828C337.694 230.805 338.397 230.103 338.397 229.236V216.686C338.397 215.82 337.694 215.118 336.828 215.118H277.216C276.349 215.118 275.647 214.415 275.647 213.549V199.43H259.959V213.549C259.959 214.415 259.257 215.118 258.391 215.118H245.841C244.974 215.118 244.272 214.415 244.272 213.549V200.999C244.272 200.133 244.974 199.43 245.841 199.43H259.959V168.055H245.841C244.974 168.055 244.272 167.353 244.272 166.487V120.993H230.153C229.287 120.993 228.585 120.291 228.585 119.424V105.306H227.016ZM179.953 105.306H165.835V119.424C165.835 120.291 166.537 120.993 167.404 120.993H181.522V105.306H179.953ZM305.453 120.993H292.903C292.037 120.993 291.334 121.695 291.334 122.562V135.112C291.334 135.978 290.632 136.68 289.766 136.68H261.528C260.662 136.68 259.959 137.383 259.959 138.249V168.055H274.078C274.945 168.055 275.647 167.353 275.647 166.487V153.937C275.647 153.07 276.349 152.368 277.216 152.368H289.766C290.632 152.368 291.334 153.07 291.334 153.937V166.487C291.334 167.353 292.037 168.055 292.903 168.055H305.453C306.319 168.055 307.022 167.353 307.022 166.487V122.562C307.022 121.695 306.319 120.993 305.453 120.993ZM195.641 120.993H181.522V136.68H197.21V120.993H195.641ZM211.328 136.68H197.21V150.799C197.21 151.666 197.912 152.368 198.778 152.368H212.897V136.68H211.328ZM179.953 136.68H167.404C166.537 136.68 165.835 137.383 165.835 138.249V150.799C165.835 151.666 166.537 152.368 167.404 152.368H179.953C180.82 152.368 181.522 151.666 181.522 150.799V136.68H179.953ZM336.828 152.368H324.278C323.412 152.368 322.709 153.07 322.709 153.937V182.174C322.709 183.04 322.007 183.743 321.14 183.743H308.59C307.724 183.743 307.022 184.445 307.022 185.311V197.861C307.022 198.728 307.724 199.43 308.59 199.43H336.828C337.694 199.43 338.397 198.728 338.397 197.861V153.937C338.397 153.07 337.694 152.368 336.828 152.368ZM23.0791 168.055H10.5292C9.6628 168.055 8.96045 168.758 8.96045 169.624V182.174C8.96045 183.04 9.6628 183.743 10.5292 183.743H24.6479V169.624C24.6479 168.758 23.9455 168.055 23.0791 168.055ZM289.766 183.743H277.216C276.349 183.743 275.647 184.445 275.647 185.311V199.43H289.766C290.632 199.43 291.334 198.728 291.334 197.861V185.311C291.334 184.445 290.632 183.743 289.766 183.743ZM38.7666 183.743H24.6479V197.861C24.6479 198.728 25.3502 199.43 26.2166 199.43H40.3353V185.311C40.3353 184.445 39.633 183.743 38.7666 183.743ZM321.14 246.493H245.841C244.974 246.493 244.272 247.195 244.272 248.061V323.361C244.272 324.227 244.974 324.93 245.841 324.93H321.14C322.007 324.93 322.709 324.227 322.709 323.361V248.061C322.709 247.195 322.007 246.493 321.14 246.493ZM101.516 246.493H26.2166C25.3502 246.493 24.6479 247.195 24.6479 248.061V323.361C24.6479 324.227 25.3502 324.93 26.2166 324.93H101.516C102.383 324.93 103.085 324.227 103.085 323.361V248.061C103.085 247.195 102.383 246.493 101.516 246.493ZM307.022 263.749V307.674C307.022 308.54 306.319 309.242 305.453 309.242H261.528C260.662 309.242 259.959 308.54 259.959 307.674V263.749C259.959 262.882 260.662 262.18 261.528 262.18H305.453C306.319 262.18 307.022 262.882 307.022 263.749ZM87.3976 263.749V307.674C87.3976 308.54 86.6953 309.242 85.8289 309.242H41.9041C41.0377 309.242 40.3353 308.54 40.3353 307.674V263.749C40.3353 262.882 41.0377 262.18 41.9041 262.18H85.8289C86.6953 262.18 87.3976 262.882 87.3976 263.749ZM195.641 277.867H183.091C182.225 277.867 181.522 278.57 181.522 279.436V291.986C181.522 292.853 182.225 293.555 183.091 293.555H195.641C196.507 293.555 197.21 292.853 197.21 291.986V279.436C197.21 278.57 196.507 277.867 195.641 277.867ZM164.266 277.867H150.147V291.986C150.147 292.853 150.85 293.555 151.716 293.555H164.266C165.132 293.555 165.835 292.853 165.835 291.986V279.436C165.835 278.57 165.132 277.867 164.266 277.867ZM179.953 309.242H167.404C166.537 309.242 165.835 309.945 165.835 310.811V323.361C165.835 324.227 165.132 324.93 164.266 324.93H151.716C150.85 324.93 150.147 325.632 150.147 326.498V339.048C150.147 339.915 150.85 340.617 151.716 340.617H195.641C196.507 340.617 197.21 339.915 197.21 339.048V324.93H183.091C182.225 324.93 181.522 324.227 181.522 323.361V310.811C181.522 309.945 180.82 309.242 179.953 309.242Z" fill="black"/>
<path d="M346 3H3V346H346V3Z" stroke="black" stroke-width="5" stroke-linejoin="round"/>
</svg>
